<svg xmlns="http://www.w3.org/2000/svg" xmlns:xlink="http://www.w3.org/1999/xlink" version="1.1" baseProfile="tiny" x="0px" y="0px" width="14px" height="14px" viewBox="0 0 14 14" xml:space="preserve"><style>.style0{fill:	#B31E3B;}</style><path d="M11 0H3C1.343 0 0 1.3 0 3v8c0 1.7 1.3 3 3 3h8c1.657 0 3-1.343 3-3V3C14 1.3 12.7 0 11 0z M10.514 4.736h-2.16V3.623H5.777v2.4l3.459 0.001l1.277 1.215v4.063l-1.242 1.245H4.735l-1.246-1.266v-1.81h2.398v0.981h2.595 l0.002-2.292H4.729L3.486 6.918V2.91l1.462-1.458h4.146l1.42 1.458V4.736L10.514 4.736z" class="style0"/></svg>